HIERARCHY
ROOT hip
{
	OFFSET 0.000000 0.000000 0.000000
	CHANNELS 6 Xposition Yposition Zposition Xrotation Zrotation Yrotation 
	JOINT abdomen
	{
		OFFSET 0.000000 3.422050 0.000000
		CHANNELS 3 Xrotation Zrotation Yrotation 
		JOINT chest
		{
			OFFSET 0.000000 8.486693 -0.684411
			CHANNELS 3 Xrotation Zrotation Yrotation 
			JOINT neck
			{
				OFFSET 0.000000 10.266162 -0.273764
				CHANNELS 3 Xrotation Zrotation Yrotation 
				JOINT head
				{
					OFFSET 0.000000 3.148285 0.000000
					CHANNELS 3 Xrotation Zrotation Yrotation 
					End Site
					{
						OFFSET 0.000000 3.148289 0.000000
					}
				}
			}
			JOINT lCollar
			{
				OFFSET 3.422053 6.707223 -0.821293
				CHANNELS 3 Yrotation Zrotation Xrotation 
				JOINT lShldr
				{
					OFFSET 3.285171 0.000000 0.000000
					CHANNELS 3 Zrotation Yrotation Xrotation 
					JOINT lForeArm
					{
						OFFSET 10.129278 0.000000 0.000000
						CHANNELS 3 Yrotation Zrotation Xrotation 
						JOINT lHand
						{
							OFFSET 8.486692 0.000000 0.000000
							CHANNELS 3 Zrotation Yrotation Xrotation 
							End Site
							{
								OFFSET 4.106464 0.000000 0.000000
							}
						}
					}
				}
			}
			JOINT rCollar
			{
				OFFSET -3.558935 6.707223 -0.821293
				CHANNELS 3 Yrotation Zrotation Xrotation 
				JOINT rShldr
				{
					OFFSET -3.148289 0.000000 0.000000
					CHANNELS 3 Zrotation Yrotation Xrotation 
					JOINT rForeArm
					{
						OFFSET -10.266159 0.000000 0.000000
						CHANNELS 3 Yrotation Zrotation Xrotation 
						JOINT rHand
						{
							OFFSET -8.349810 0.000000 0.000000
							CHANNELS 3 Zrotation Yrotation Xrotation 
							End Site
							{
								OFFSET -4.106464 0.000000 0.000000
							}
						}
					}
				}
			}
		}
	}
	JOINT lThigh
	{
		OFFSET 5.338403 -1.642589 1.368821
		CHANNELS 3 Xrotation Zrotation Yrotation 
		JOINT lShin
		{
			OFFSET -2.053232 -20.121670 0.000000
			CHANNELS 3 Xrotation Zrotation Yrotation 
			JOINT lFoot
			{
				OFFSET 0.000000 -19.300380 -1.231939
				CHANNELS 3 Xrotation Yrotation Zrotation 
				End Site
				{
					OFFSET 0.000000 -2.463878 4.653993
				}
			}
		}
	}
	JOINT rThigh
	{
		OFFSET -5.338403 -1.642589 1.368821
		CHANNELS 3 Xrotation Zrotation Yrotation 
		JOINT rShin
		{
			OFFSET 2.053232 -20.121670 0.000000
			CHANNELS 3 Xrotation Zrotation Yrotation 
			JOINT rFoot
			{
				OFFSET 0.000000 -19.300380 -1.231939
				CHANNELS 3 Xrotation Yrotation Zrotation 
				End Site
				{
					OFFSET 0.000000 -2.463878 4.653993
				}
			}
		}
	}
}
MOTION
Frames: 9
Frame Time: 0.049989
0.000000 43.528500 0.000000 0.000000 0.000000 0.000000 0.000000 0.000000 0.000000 0.000000 0.000000 0.000000 0.000000 0.000000 0.000000 0.000000 0.000000 0.000000 0.000000 0.000000 0.000000 0.000000 0.000000 0.000000 0.000000 0.000000 0.000000 0.000000 0.000000 0.000000 0.000000 0.000000 0.000000 0.000000 0.000000 0.000000 0.000000 0.000000 0.000000 0.000000 0.000000 0.000000 0.000000 0.000000 0.000000 0.000000 0.000000 0.000000 0.000000 0.000000 0.000000 0.000000 0.000000 0.000000 0.000000 0.000000 0.000000 0.000000 0.000000 0.000000 
0.000000 -32.000500 12.997168 -31.002779 0.000000 0.000000 49.481731 -0.821303 -0.803969 38.889187 -0.566891 -0.342917 -31.156273 -13.890763 46.280380 -14.731092 11.685359 18.373688 -4.860435 -7.799099 -10.263852 -17.496780 -75.341423 -62.889240 -31.430384 -52.322086 68.058739 -67.318092 -30.668919 -6.536143 5.126688 7.775545 -10.274793 17.401276 75.244125 -62.959518 31.430838 52.236050 68.016167 67.315979 30.652876 -6.481069 -111.272171 0.069999 -18.034393 153.573044 2.750037 0.168051 -15.548395 -21.411549 -19.182722 -109.670433 -0.271995 18.215763 153.574768 -2.763451 -0.179316 -16.995447 21.348654 19.456959 
0.000000 -32.000500 12.997168 -31.002779 0.000000 0.000000 49.481731 -0.821303 -0.803969 38.889187 -0.566891 -0.342917 -30.784994 -13.948668 45.698315 -15.382329 11.720861 18.157948 -5.160287 -7.529450 -10.360757 -17.161591 -75.080460 -63.218769 -31.430389 -52.322086 68.058746 -67.318092 -30.668919 -6.536143 5.442997 7.499510 -10.375209 17.077738 74.980980 -63.276020 31.430838 52.236050 68.016167 67.315979 30.652878 -6.481070 -111.269455 -0.127637 -18.030256 153.573044 2.750038 0.168051 -15.537091 -21.286934 -19.330488 -109.670441 -0.271995 18.215765 153.574783 -2.763452 -0.179316 -16.995447 21.348656 19.456961 
0.000000 -32.000500 12.997168 -31.002779 0.000000 0.000000 49.481731 -0.821303 -0.803969 38.889187 -0.566891 -0.342917 -30.412588 -14.002963 45.115025 -16.034639 11.754003 17.941498 -5.459535 -7.259265 -10.456191 -16.837748 -74.818970 -63.536907 -31.430389 -52.322086 68.058739 -67.318100 -30.668922 -6.536146 5.758667 7.222888 -10.474034 16.765125 74.717354 -63.581581 31.430838 52.236050 68.016167 67.315979 30.652876 -6.481070 -111.266754 -0.325281 -18.026129 153.573044 2.750038 0.168051 -15.525447 -21.162338 -19.478159 -109.670433 -0.271995 18.215763 153.574768 -2.763451 -0.179316 -16.995447 21.348654 19.456959 
0.000000 -32.000500 12.997168 -31.002779 0.000000 0.000000 49.481728 -0.821303 -0.803969 38.889187 -0.566891 -0.342917 -30.039131 -14.053636 44.530602 -16.687962 11.784766 17.724382 -5.758186 -6.988556 -10.550157 -16.524670 -74.556976 -63.844215 -31.430380 -52.322079 68.058723 -67.318092 -30.668919 -6.536141 6.073705 6.945697 -10.571279 16.462946 74.453293 -63.876701 31.430838 52.236046 68.016167 67.315979 30.652876 -6.481069 -111.264076 -0.522930 -18.022015 153.573044 2.750037 0.168051 -15.513465 -21.037760 -19.625732 -109.670433 -0.271995 18.215763 153.574783 -2.763451 -0.179316 -16.995445 21.348654 19.456959 
0.000000 -32.000500 12.997168 -31.002779 0.000000 0.000000 49.481731 -0.821303 -0.803969 38.889183 -0.566891 -0.342917 -29.664677 -14.100657 43.945099 -17.342251 11.813133 17.506639 -6.056248 -6.717346 -10.642656 -16.221909 -74.294563 -64.141258 -31.430380 -52.322083 68.058739 -67.318092 -30.668919 -6.536143 6.388114 6.667952 -10.666935 16.170694 74.188858 -64.161957 31.430838 52.236050 68.016167 67.315979 30.652876 -6.481067 -111.261414 -0.720581 -18.017910 153.573029 2.750037 0.168051 -15.501157 -20.913218 -19.773222 -109.670425 -0.271996 18.215763 153.574768 -2.763451 -0.179316 -16.995447 21.348654 19.456959 
0.000000 -32.000500 12.997168 -31.002779 0.000000 0.000000 49.481731 -0.821303 -0.803969 38.889187 -0.566891 -0.342917 -29.289282 -14.144003 43.358562 -17.997444 11.839090 17.288305 -6.353725 -6.445645 -10.733690 -15.928924 -74.031746 -64.428520 -31.430384 -52.322086 68.058739 -67.318092 -30.668919 -6.536143 6.701909 6.389675 -10.761017 15.887841 73.923988 -64.437752 31.430838 52.236050 68.016167 67.315979 30.652876 -6.481069 -111.258751 -0.918237 -18.013807 153.573044 2.750037 0.168051 -15.488513 -20.788704 -19.920618 -109.670433 -0.271995 18.215763 153.574768 -2.763451 -0.179316 -16.995447 21.348654 19.456959 
0.000000 -32.000500 12.997168 -31.002783 0.000000 0.000000 49.481731 -0.821303 -0.803969 38.889187 -0.566891 -0.342917 -28.913025 -14.183655 42.771084 -18.653492 11.862630 17.069437 -6.650620 -6.173466 -10.823256 -15.645288 -73.768547 -64.706451 -31.430384 -52.322086 68.058739 -67.318092 -30.668919 -6.536143 7.015086 6.110878 -10.853515 15.614002 73.658783 -64.704552 31.430838 52.236050 68.016167 67.315979 30.652876 -6.481069 -111.256111 -1.115896 -18.009720 153.573044 2.750037 0.168051 -15.475535 -20.664215 -20.067921 -109.670433 -0.271995 18.215763 153.574768 -2.763451 -0.179316 -16.995447 21.348654 19.456959 
0.000000 -32.000500 12.997168 -31.002783 0.000000 0.000000 49.481731 -0.821303 -0.803969 38.889187 -0.566891 -0.342917 -28.535967 -14.219599 42.182720 -19.310341 11.883736 16.850071 -6.946943 -5.900827 -10.911363 -15.370565 -73.504951 -64.975441 -31.430393 -52.322090 68.058746 -67.318092 -30.668919 -6.536144 7.327653 5.831578 -10.944431 15.348750 73.393211 -64.962753 31.430840 52.236050 68.016174 67.315987 30.652878 -6.481069 -111.253487 -1.313554 -18.005638 153.573029 2.750037 0.168051 -15.462225 -20.539757 -20.215134 -109.670433 -0.271995 18.215763 153.574768 -2.763451 -0.179316 -16.995447 21.348656 19.456961 
